<svg width="103" height="17" viewBox="0 0 103 17" fill="none" xmlns="http://www.w3.org/2000/svg">
<g clip-path="url(#clip0_515_715)">
<path d="M20.9336 6.54842L21.8425 4.69739H16.0121L14.4844 12.2515H19.8468L20.7538 10.4005H17.0544L17.2768 9.30571H19.5799L20.4888 7.4567H17.6577L17.8414 6.54842H20.9336Z" fill="white"/>
<path d="M34.7408 0.296021H28.9046L20.8696 16.6531H25.7216L27.2029 13.3424H31.4437L31.7164 16.6491H36.3575L34.7408 0.296021ZM28.7654 9.62208C29.6858 7.61091 30.44 5.92411 31.0279 4.47046C31.0898 5.88964 31.2078 7.74067 31.3606 9.62208H28.7654Z" fill="white"/>
<path d="M49.9015 0.296021H36.9548L36.187 4.01226H40.3582L37.8172 16.6531H42.4545L44.9955 4.01226H49.1338L49.9015 0.296021Z" fill="white"/>
<path d="M62.052 2.05579C60.8917 0.71162 59.1339 0 56.9815 0C51.215 0 48.1963 5.14354 48.1963 10.2242C48.1963 14.4352 50.6445 16.9492 54.746 16.9492C57.6468 16.9492 60.0137 15.8482 61.5917 13.7682C62.928 12.0063 63.6628 9.5876 63.6628 6.95604C63.6628 4.96715 63.104 3.27224 62.052 2.05579ZM55.2121 13.3018C53.3538 13.3018 52.965 11.6799 52.965 10.3054C52.9756 8.79307 53.3023 7.30169 53.9223 5.93626C54.4231 4.89214 55.3262 3.64731 56.7746 3.64731C58.223 3.64731 58.9714 4.66101 58.9714 6.68842C58.9714 9.24297 57.9504 13.3018 55.2121 13.3018Z" fill="white"/>
<path d="M83.0107 0.295901H76.3442L76.294 0.421602C75.9637 1.2204 75.6233 2.03137 75.2868 2.83625C74.2406 5.34212 73.2447 7.72839 72.5292 9.6443C72.6279 7.10394 72.6936 3.10589 72.6742 0.502698V0.299956H66.1612L62.8525 16.653H67.0624L68.1202 11.4122C68.507 9.53073 68.884 7.45266 69.1703 5.73544C69.1277 7.75069 69.1161 10.0376 69.1064 12.2718C69.1064 13.7051 69.0929 15.1224 69.0774 16.4402V16.6429H72.8425L72.8947 16.5172C74.6351 12.3732 76.2247 8.32245 77.3019 5.53878C76.9152 7.26208 76.4721 9.3909 76.1106 11.1912L75.0142 16.6429H79.7053L81.0596 9.93019H77.71L83.0107 0.285767V0.295901Z" fill="white"/>
<path d="M83.9383 0.296021L82.581 7.00877H86.0828L80.6313 16.6531H85.5416L88.8485 0.296021H83.9383Z" fill="white"/>
<path d="M96.475 3.63912C97.738 3.63912 98.3066 4.30209 98.3127 5.79223V5.99497H103V5.79223C103 4.13584 102.514 2.73287 101.569 1.73741C100.494 0.602066 98.8479 0.00195312 96.81 0.00195312C93.975 0.00195312 91.6486 1.2184 90.0819 3.50532C88.8364 5.32998 88.1216 7.77301 88.1216 10.212C88.1216 14.4939 90.4069 16.9511 94.3922 16.9511C98.347 16.9511 100.991 14.9602 102.035 11.1912L102.111 10.9236H97.4L97.349 11.0554C96.9044 12.2151 96.2915 13.2855 94.8352 13.2855C93.5784 13.2855 92.9671 12.3509 92.9671 10.4289C92.9633 7.58244 94.1836 3.63912 96.475 3.63912Z" fill="white"/>
<path d="M2.09619 6.54842H3.97971L2.83297 12.2515H5.09358L6.24032 6.54842H8.10642L8.48934 4.69739H2.47909L2.09619 6.54842Z" fill="white"/>
<path d="M13.0337 4.69739L12.4903 7.37763H10.8099L11.3552 4.69739H9.09068L7.56299 12.2515H9.82744L10.4327 9.22861H12.1132L11.5079 12.2515H13.7743L15.302 4.69739H13.0337Z" fill="white"/>
<path d="M3.38973 0.296021L3.00684 2.15516H24.8046L25.7174 0.296021H3.38973Z" fill="white"/>
<path d="M0.380958 14.7938L0 16.653H17.6827L18.5954 14.7938H0.380958Z" fill="white"/>
<path d="M20.9336 6.55244L21.8425 4.70142H16.0121L14.4844 12.2555H19.8468L20.7538 10.4045H17.0544L17.2768 9.30976H19.5799L20.4888 7.46072H17.6577L17.8414 6.55244H20.9336Z" fill="white"/>
<path d="M34.7408 0.300049H28.9046L20.8696 16.6572H25.7216L27.2029 13.3423H31.4437L31.7164 16.649H36.3575L34.7408 0.300049ZM28.7654 9.62612C29.6858 7.61494 30.44 5.92813 31.0279 4.47448C31.0898 5.89367 31.2078 7.74469 31.3606 9.62612H28.7654Z" fill="white"/>
<path d="M49.9015 0.300049H36.9548L36.187 4.01629H40.3582L37.8172 16.6572H42.4545L44.9955 4.01629H49.1338L49.9015 0.300049Z" fill="white"/>
<path d="M62.052 2.05982C60.8917 0.715649 59.1339 0.00402832 56.9815 0.00402832C51.215 0.00402832 48.1963 5.14757 48.1963 10.2282C48.1963 14.4392 50.6445 16.9531 54.746 16.9531C57.6468 16.9531 60.0137 15.8523 61.5917 13.7721C62.928 12.0104 63.6628 9.59165 63.6628 6.96007C63.6628 4.97118 63.104 3.27626 62.052 2.05982ZM55.2121 13.3059C53.3538 13.3059 52.965 11.6839 52.965 10.3093C52.9756 8.79712 53.3023 7.30572 53.9223 5.94028C54.4231 4.89617 55.3262 3.65133 56.7746 3.65133C58.223 3.65133 58.9714 4.66504 58.9714 6.69245C58.9714 9.24494 57.9504 13.3059 55.2121 13.3059Z" fill="white"/>
<path d="M83.0107 0.300054H76.3442L76.294 0.425753C75.9637 1.22455 75.6233 2.03552 75.2868 2.8404C74.2406 5.34627 73.2447 7.73254 72.5292 9.64847C72.6279 7.10607 72.6936 3.11005 72.6742 0.506851V0.30411H66.1612L62.8525 16.6572H67.0624L68.1202 11.4163C68.507 9.5349 68.884 7.45478 69.1703 5.73959C69.1277 7.75281 69.1161 10.0418 69.1064 12.276C69.1064 13.7093 69.0929 15.1265 69.0774 16.4443V16.647H72.8425L72.8947 16.5213C74.6351 12.3773 76.2247 8.32654 77.3019 5.54293C76.9152 7.26623 76.4721 9.38485 76.1106 11.1933L75.0142 16.647H79.7053L81.0596 9.93428H77.71L83.0107 0.289917V0.300054Z" fill="white"/>
<path d="M83.9383 0.300049L82.581 7.0128H86.0828L80.6313 16.6572H85.5416L88.8485 0.300049H83.9383Z" fill="white"/>
<path d="M96.475 3.6432C97.738 3.6432 98.3066 4.30616 98.3127 5.79631V5.99905H103V5.79631C103 4.13991 102.514 2.73695 101.569 1.74149C100.494 0.60817 98.8479 0.00805664 96.81 0.00805664C93.975 0.00805664 91.6486 1.2245 90.0819 3.51142C88.8364 5.33608 88.1216 7.76897 88.1216 10.2161C88.1216 14.5 90.4069 16.9572 94.3922 16.9572C98.347 16.9572 100.991 14.9643 102.035 11.1974L102.111 10.9297H97.4L97.349 11.0615C96.9044 12.2212 96.2915 13.2916 94.8352 13.2916C93.5784 13.2916 92.9671 12.357 92.9671 10.435C92.9633 7.58651 94.1836 3.6432 96.475 3.6432Z" fill="white"/>
<path d="M3.38973 0.300049L3.00684 2.15918H24.8046L25.7174 0.300049H3.38973Z" fill="white"/>
<path d="M0.380958 14.7979L0 16.657H17.6827L18.5954 14.7979H0.380958Z" fill="white"/>
</g>
<defs>
<clipPath id="clip0_515_715">
<rect width="103" height="17" fill="white"/>
</clipPath>
</defs>
</svg>
